<svg aria-hidden="true" style="position:absolute;width:0;height:0;overflow:hidden" xmlns="http://www.w3.org/2000/svg"><defs><symbol id="envelope" viewBox="0 0 43 32"><path fill="#757575" style="fill:var(--color1, #757575)" d="M38.667 0H4C1.794 0 0 1.794 0 4v24c0 2.206 1.794 4 4 4h34.667c2.206 0 4-1.794 4-4V4c0-2.206-1.794-4-4-4zm0 2.667c.181 0 .353.038.511.103L21.334 18.236 3.49 2.77a1.32 1.32 0 0 1 .511-.103h34.667zm0 26.666H4A1.334 1.334 0 0 1 2.667 28V5.587L20.46 21.008a1.335 1.335 0 0 0 1.748 0L40.001 5.587V28c0 .736-.598 1.333-1.333 1.333z"/></symbol><symbol id="antennasvg" viewBox="0 0 32 32"><path fill="#212121" style="fill:var(--color2, #212121)" d="m30.773 22.098-8.443-8.505.937-4.615c.242.094.499.144.758.146h.006a2.159 2.159 0 1 0-2.008-1.435l-4.96.605L8.972.161a.534.534 0 0 0-.377-.16.532.532 0 0 0-.373.155L6.709 1.66a.534.534 0 0 0 0 .754l.814.826a14.943 14.943 0 0 0 2.519 17.663.513.513 0 0 0 .146.098c-.034.18-.051.364-.052.547v6.187h-6.4a2.67 2.67 0 0 0-2.667 2.667v1.067c0 .295.239.533.533.533h24.533a.533.533 0 0 0 .533-.533v-1.067a2.67 2.67 0 0 0-2.667-2.667h-6.4v-2.742a15.09 15.09 0 0 0 3.049.32 14.854 14.854 0 0 0 7.04-1.783l.818.823a.534.534 0 0 0 .377.16.532.532 0 0 0 .373-.155l1.513-1.504a.534.534 0 0 0 0-.754zM23.28 6.233a1.066 1.066 0 1 1 .752 1.822h-.003a1.067 1.067 0 0 1-.747-1.823h-.002zm-1.256 3.505-.598 2.946-1.175-1.182 1.774-1.763zm-.605-.902-1.92 1.909-1.485-1.493 3.405-.415zM24.004 28.8a1.6 1.6 0 0 1 1.6 1.6v.533H2.137V30.4a1.6 1.6 0 0 1 1.6-1.6h20.267zm-7.467-2.133v1.067h-5.333v-1.067h5.333zM11.204 25.6v-4.053c0-1.294 1.196-2.347 2.667-2.347s2.667 1.053 2.667 2.347V25.6h-5.333zm6.4-1.696v-2.357c0-1.882-1.675-3.413-3.733-3.413a3.8 3.8 0 0 0-3.281 1.786A13.87 13.87 0 0 1 8.311 4.033l18.602 18.708a13.818 13.818 0 0 1-9.309 1.163zm11.289-.684L7.836 2.039l.755-.752 7.935 7.98c.004 0 .006.007.01.01l13.115 13.191-.757.752z"/><path fill="#2196f3" style="fill:var(--color3, #2196f3)" d="M13.876 20.267h-.005a1.6 1.6 0 1 0-.004 3.2h.005a1.6 1.6 0 1 0 .004-3.2zm.373 1.978a.534.534 0 0 1-.752-.756.534.534 0 0 1 .373-.155.532.532 0 0 1 .373.911h.005z"/></symbol><symbol id="astronaut-1" viewBox="0 0 32 32"><path fill="#2196f3" style="fill:var(--color3, #2196f3)" d="M31.978 4.524a.535.535 0 0 0-.427-.362h-.003l-1.911-.278-.855-1.731c-.179-.365-.777-.365-.956 0l-.855 1.731-1.911.278a.534.534 0 0 0-.296.91l1.384 1.348-.326 1.903a.532.532 0 0 0 .774.562l1.709-.899 1.709.899a.534.534 0 0 0 .774-.565v.003l-.326-1.903 1.383-1.348a.535.535 0 0 0 .134-.55l.001.004zm-2.463 1.328a.53.53 0 0 0-.153.472l.191 1.114-1-.526a.525.525 0 0 0-.501.001l.003-.001-1 .526.191-1.114a.534.534 0 0 0-.152-.473l-.811-.79 1.119-.162a.532.532 0 0 0 .402-.292l.5-1.013.5 1.013a.532.532 0 0 0 .402.292l1.119.162-.809.79zm-3.378 14.673H25.07v1.067h1.067v-1.067zm0 2.134H25.07v1.066h1.067v-1.066zm1.066-1.067h-1.067v1.067h1.067v-1.067zm-2.133 0h-1.067v1.067h1.067v-1.067zm-2.667 4.8h-1.067v1.067h1.067v-1.067zm0 2.134h-1.067v1.067h1.067v-1.067zm1.067-1.067h-1.067v1.067h1.067v-1.067zm-2.134 0h-1.067v1.067h1.067v-1.067zm-5.334-3.2h-1.067v1.067h1.067v-1.067zm0 2.133h-1.067v1.067h1.067v-1.067zm1.067-1.067h-1.067v1.067h1.067v-1.067zm-2.134 0h-1.067v1.067h1.067v-1.067zM5.867 6.123H4.8V7.19h1.067V6.123zm0 2.134H4.8v1.067h1.067V8.258zm1.067-1.068H5.867v1.067h1.067V7.189zm-2.133 0H3.734v1.067h1.067V7.189z"/><path fill="#212121" style="fill:var(--color2, #212121)" d="M24.718 14.161a1.776 1.776 0 0 0-1.179-.703l-.009-.001a1.769 1.769 0 0 0-1.344.355l.004-.003-1.253.96-1.898 1.417-1.358-.541c2.421-1.086 4.114-3.509 4.114-6.321 0-3.824-3.123-6.934-6.962-6.934S7.871 5.501 7.871 9.324c0 1.386.415 2.675 1.12 3.759l-2.769-.024c-.009 0-.016.005-.023.005a.511.511 0 0 0-.159.033l.004-.001c-.013.005-.026.007-.038.013-.006.003-.013.003-.019.006l-3.233 1.596-.001.001-1.893.91a.5.5 0 0 0-.065.036l.001-.001a1.782 1.782 0 0 0-.594 2.306l-.005-.01c.22.424.593.742 1.044.885l.013.003a1.772 1.772 0 0 0 1.388-.133l-.009.005 1.388-.738 2.264-1.17 1.357-.008L2.2 22.213l-.001.001L.86 23.547a1.643 1.643 0 0 0-.491 1.174v.005a1.668 1.668 0 0 0 1.667 1.664h.002c.428 0 .854-.162 1.181-.486l1.314-1.309 1.741-1.3.901.897-3.102 3.089a1.643 1.643 0 0 0-.491 1.174v.004a1.662 1.662 0 0 0 1.667 1.664h.003c.427 0 .855-.162 1.181-.485l4.489-4.473c.007-.006.016-.009.022-.016l5.166-5.659 3.472.494a.474.474 0 0 0 .262-.032c.017-.006.032-.015.049-.023.019-.01.039-.015.058-.027l3.214-2.133c.012-.008.018-.021.029-.03.013-.01.029-.014.041-.026l1.271-1.191c.348-.326.564-.787.564-1.3 0-.4-.132-.769-.355-1.067l.003.005zM2.131 17.772a.706.706 0 0 1-.564.05l.005.001a.717.717 0 0 1-.215-1.258l.002-.001 1.314-.632.316.924.133.389-.992.527zm3.497-1.828-1.549.8-.255-.747-.184-.537 2.027-1.001-.04 1.484zm15.101-6.621c0 .918-.219 1.785-.599 2.56l-4.182-1.9a1.865 1.865 0 0 0-.782-1.384l-.006-.004 1.464-4.861c2.377.757 4.105 2.975 4.105 5.589zm-11.79 0c0-3.235 2.644-5.868 5.895-5.868.253 0 .5.022.745.053l-1.432 4.754c-.019 0-.037-.006-.057-.006h-.001a1.872 1.872 0 0 0-1.872 1.867 1.872 1.872 0 0 0 1.872 1.867h.001c.695 0 1.295-.383 1.618-.945l3.863 1.755a5.892 5.892 0 0 1-4.738 2.39c-3.251 0-5.895-2.632-5.895-5.867zm5.957.8c0 .441-.362.8-.806.8h-.001a.804.804 0 0 1-.804-.8c0-.441.361-.8.806-.8s.806.359.806.8zM2.465 25.149a.606.606 0 0 1-.855.001.591.591 0 0 1 0-.844l.962-.959.852.848-.959.955zm3.214 3.734a.606.606 0 0 1-.855.001.591.591 0 0 1 0-.844l.963-.959.852.848-.96.956zm3.482-3.469-.001.001-1.765 1.76-.852-.848 1.765-1.757a.527.527 0 0 0 .09-.136c.007-.014.02-.026.026-.04.016-.041.019-.085.026-.128.003-.025.014-.048.014-.073 0-.035-.013-.07-.02-.105-.006-.032-.006-.064-.019-.096a.536.536 0 0 0-.092-.138c-.01-.012-.014-.027-.025-.038h-.001l-.001-.002-1.607-1.6c-.017-.017-.039-.024-.058-.038a.491.491 0 0 0-.084-.056l-.003-.001a.527.527 0 0 0-.09-.031l-.003-.001a.502.502 0 0 0-.101-.02h-.025a.603.603 0 0 0-.075.005h.003c-.036.005-.069.009-.104.021s-.064.027-.094.045c-.02.011-.043.015-.061.029L4.23 23.491l-.901-.897 2.399-2.387 4.361 4.289-.928.919zm6.82-7.018c-.016-.002-.03.004-.046.003l-.027-.001a.562.562 0 0 0-.092.008h.003a.484.484 0 0 0-.187.07l.002-.001a.492.492 0 0 0-.083.061c-.013.011-.028.016-.04.029l-4.698 5.146-4.329-4.257 2.833-2.819a.535.535 0 0 0-.378-.911h-.002l-2.219.013.028-1.607 3.104.027a6.929 6.929 0 0 0 4.979 2.101h.003c.438 0 .864-.046 1.28-.123.04.032.08.064.129.085l2.41.96.152.759.178.886-3.003-.427zm4.042.179-.313-1.558 1.447-1.08.946 1.257-2.08 1.382zm3.753-2.832-.838.785-.931-1.236.831-.637a.735.735 0 0 1 .543-.143.718.718 0 0 1 .621.71.71.71 0 0 1-.226.521z"/><path fill="#212121" style="fill:var(--color2, #212121)" d="m13.604 18.546-2.143-2.134a.53.53 0 0 0-.752 0l-2.143 2.134a.533.533 0 0 0 0 .756l2.142 2.134a.533.533 0 0 0 .754 0l2.143-2.134a.532.532 0 0 0 0-.756zm-2.519 1.76-1.387-1.381 1.387-1.381 1.388 1.381-1.388 1.381zm6.081-15.235-.258 1.036c.071.018 1.738.452 1.738 2.149h1.067c0-2.017-1.666-2.965-2.547-3.185zm2.548 4.252h-1.067v1.067h1.067V9.323z"/></symbol><symbol id="clocksvg" viewBox="0 0 32 32"><path fill="#212121" style="fill:var(--color2, #212121)" d="M31.3 15.303C31.299 6.85 24.444-.002 15.99 0S.685 6.856.687 15.31c.002 6.789 4.423 12.544 10.542 14.547l.108.031a.667.667 0 0 0 .529-.065.636.636 0 0 0 .283-.357l3.865-12.252a1.913 1.913 0 1 0-.852-3.63l.011-.005-5.106-5.107a.638.638 0 0 0-.902.902l5.104 5.11a1.873 1.873 0 0 0 .533 2.307l.004.003-3.683 11.675C3.844 25.788.117 17.713 2.798 10.435S13.553-.571 20.832 2.111c7.279 2.681 11.006 10.755 8.324 18.034-1.345 3.582-4.004 6.407-7.375 7.939l-.088.036-.398-1.875a.639.639 0 0 0-1.05-.343l.001-.001-3.837 3.426a.637.637 0 0 0 .227 1.083l.005.001 4.899 1.564a.637.637 0 0 0 .818-.744l.001.004-.391-1.839c5.528-2.375 9.33-7.773 9.33-14.058v-.034.002zm-15.306-.637a.638.638 0 0 1 0 1.276.638.638 0 0 1 0-1.276zm2.101 14.865 2.184-1.949.603 2.841-2.788-.892z"/><path fill="#2196f3" style="fill:var(--color3, #2196f3)" d="M15.356 3.185v1.276a.638.638 0 0 0 1.276 0V3.185a.638.638 0 0 0-1.276 0zM3.877 14.666a.638.638 0 0 0 0 1.276h1.276a.638.638 0 0 0 0-1.276H3.877zm24.235 1.275a.638.638 0 0 0 0-1.276h-1.276a.638.638 0 0 0 0 1.276h1.276z"/></symbol><symbol id="diagramsvg" viewBox="0 0 32 32"><path fill="#2196f3" style="fill:var(--color3, #2196f3)" d="M14.928 14.966h1.066v4.798h-1.066v-4.798zm4.264 2.133h1.066v2.665h-1.066v-2.665zm-8.53 1.6h1.066v1.066h-1.066v-1.066zm-3.198-.534H8.53v1.599H7.464v-1.599z"/><path fill="#212121" style="fill:var(--color2, #212121)" d="M1.599 28.294h25.589a1.6 1.6 0 0 0 1.599-1.599v-2.132a1.6 1.6 0 0 0-1.599-1.599h-.533V9.669l3.028-2.868a1.608 1.608 0 1 0-.742-.752l-.004-.01-2.281 2.163v-1.23a1.6 1.6 0 0 0-1.599-1.599H3.732a1.6 1.6 0 0 0-1.599 1.599v15.994H1.6a1.6 1.6 0 0 0-1.599 1.599v2.132A1.6 1.6 0 0 0 1.6 28.296zM30.388 4.837a.533.533 0 0 1 0 1.066.533.533 0 0 1 0-1.066zM3.199 6.97c0-.294.239-.533.533-.533h21.325c.294 0 .533.239.533.533v2.239l-1.066 1.013V8.037a.534.534 0 0 0-.534-.534H4.798a.534.534 0 0 0-.534.533v13.328c0 .294.239.533.534.533H23.99a.534.534 0 0 0 .534-.533v-9.676l1.066-1.01v12.285H3.199V6.97zm4.798 6.93h-.005a1.6 1.6 0 1 0 1.112 2.748l1.853.93a.533.533 0 0 0 .636-.123l3.939-4.432 3.872 2.902a.534.534 0 0 0 .686-.039l3.365-3.188v8.132H5.329V8.568h18.126v2.661l-3.772 3.572-3.905-2.927a.534.534 0 0 0-.718.071v.001l-3.993 4.493-1.493-.747c.011-.064.017-.128.02-.193A1.6 1.6 0 0 0 7.995 13.9zm.533 1.6a.533.533 0 0 1-1.066 0 .533.533 0 0 1 1.066 0zm3.199 8.529h5.331v.533a.533.533 0 0 1-.533.533h-4.265a.533.533 0 0 1-.533-.533v-.533zm-10.662.534c0-.294.238-.533.533-.533h9.063v.533a1.6 1.6 0 0 0 1.599 1.599h4.265a1.6 1.6 0 0 0 1.599-1.599v-.533h9.063c.294 0 .533.239.533.533v2.132a.533.533 0 0 1-.533.533H1.6a.533.533 0 0 1-.533-.533v-2.132z"/></symbol><symbol id="envelope-hover-1" viewBox="0 0 43 32"><path fill="#2196f3" style="fill:var(--color3, #2196f3)" d="M38.688-.009H4.003A4.007 4.007 0 0 0 .001 3.993v24.013a4.007 4.007 0 0 0 4.002 4.002h34.685a4.007 4.007 0 0 0 4.002-4.002V3.993a4.007 4.007 0 0 0-4.002-4.002zm0 2.668c.181 0 .355.037.512.104L21.345 18.238 3.49 2.763c.151-.065.327-.104.512-.104h34.686zm0 26.682H4.003a1.334 1.334 0 0 1-1.334-1.334V5.581l17.802 15.43a1.335 1.335 0 0 0 1.752-.001l-.002.001 17.802-15.43v22.426c0 .737-.597 1.334-1.334 1.334z"/></symbol><symbol id="facebook-1" viewBox="0 0 32 32"><path fill="#afb1b8" style="fill:var(--color4, #afb1b8)" d="M21.333 5.313h2.924V.224A36.51 36.51 0 0 0 20.149 0h-.156.008C15.787 0 12.9 2.65 12.9 7.522v4.481H8.253v5.689H12.9v14.315h5.7V17.694h4.46l.707-5.689h-5.169V8.083c0-1.644.443-2.769 2.735-2.769z"/></symbol><symbol id="facebook1-2" viewBox="0 0 32 32"><path fill="#fff" style="fill:var(--color5, #fff)" d="M21.333 5.313h2.924V.224A36.51 36.51 0 0 0 20.149 0h-.157H20c-4.214 0-7.101 2.65-7.101 7.522v4.481H8.252v5.689h4.647v14.315h5.7V17.694h4.46l.709-5.689h-5.171V8.083c0-1.644.443-2.769 2.735-2.769z"/></symbol><symbol id="instagram-2-1" viewBox="0 0 32 32"><path fill="#afb1b8" style="fill:var(--color4, #afb1b8)" d="M31.975 9.41c-.074-1.701-.349-2.869-.743-3.882a7.843 7.843 0 0 0-1.85-2.838l-.001-.001A7.887 7.887 0 0 0 26.602.862l-.054-.018C25.529.45 24.367.177 22.666.101 20.954.019 20.41 0 16.063 0c-4.345 0-4.889.019-6.597.094-1.7.074-2.869.349-3.881.743a7.847 7.847 0 0 0-2.839 1.85l-.001.001A7.877 7.877 0 0 0 .92 5.467l-.018.054C.507 6.54.233 7.702.158 9.403c-.082 1.712-.101 2.256-.101 6.603 0 4.345.019 4.889.094 6.597.075 1.701.35 2.869.744 3.882a7.936 7.936 0 0 0 1.849 2.838l.001.001c.8.813 1.77 1.444 2.833 1.844 1.019.395 2.183.671 3.882.744 1.708.075 2.252.094 6.597.094 4.347 0 4.891-.019 6.597-.094 1.701-.074 2.869-.349 3.882-.743a8.234 8.234 0 0 0 4.665-4.629l.019-.055c.394-1.019.669-2.183.744-3.882.075-1.708.093-2.252.093-6.597s-.006-4.889-.08-6.597zm-2.881 13.069c-.07 1.564-.333 2.407-.551 2.97a5.339 5.339 0 0 1-3.005 3.025l-.036.012c-.56.219-1.412.482-2.969.551-1.688.075-2.194.094-6.465.094-4.27 0-4.783-.019-6.465-.094-1.564-.069-2.407-.331-2.97-.551a4.935 4.935 0 0 1-1.836-1.193l-.001-.001a4.987 4.987 0 0 1-1.184-1.803l-.011-.034c-.218-.563-.48-1.413-.549-2.97-.075-1.688-.094-2.196-.094-6.465 0-4.271.019-4.785.094-6.465.069-1.564.331-2.407.549-2.97A4.887 4.887 0 0 1 4.8 4.748l.002-.002a4.975 4.975 0 0 1 1.806-1.183l.034-.011c.56-.219 1.412-.48 2.969-.551 1.688-.074 2.196-.093 6.465-.093 4.276 0 4.783.019 6.465.093 1.564.069 2.407.331 2.97.551a4.922 4.922 0 0 1 1.837 1.194c.531.52.938 1.144 1.195 1.84.218.56.48 1.412.549 2.969.075 1.688.094 2.194.094 6.465 0 4.27-.019 4.769-.094 6.459z"/><path fill="#afb1b8" style="fill:var(--color4, #afb1b8)" d="M16.063 7.784a8.224 8.224 0 0 0-8.221 8.223 8.223 8.223 0 0 0 16.445.009v-.009a8.225 8.225 0 0 0-8.223-8.223zm0 13.555a5.334 5.334 0 0 1 .001-10.668h.001a5.335 5.335 0 1 1 0 10.67zm10.468-13.88a1.92 1.92 0 1 1-3.84 0 1.92 1.92 0 1 1 3.84 0z"/></symbol><symbol id="instagram-2-2" viewBox="0 0 32 32"><path fill="#fff" style="fill:var(--color5, #fff)" d="M31.975 9.41c-.074-1.701-.349-2.869-.743-3.882a7.843 7.843 0 0 0-1.85-2.838l-.001-.001A7.887 7.887 0 0 0 26.602.862l-.054-.018C25.529.45 24.367.177 22.666.101 20.954.019 20.41 0 16.063 0c-4.345 0-4.889.019-6.597.094-1.7.074-2.869.349-3.881.743a7.847 7.847 0 0 0-2.839 1.85l-.001.001A7.877 7.877 0 0 0 .92 5.467l-.018.054C.507 6.54.233 7.702.158 9.403c-.082 1.712-.101 2.256-.101 6.603 0 4.345.019 4.889.094 6.597.075 1.701.35 2.869.744 3.882a7.936 7.936 0 0 0 1.849 2.838l.001.001c.8.813 1.77 1.444 2.833 1.844 1.019.395 2.183.671 3.882.744 1.708.075 2.252.094 6.597.094 4.347 0 4.891-.019 6.597-.094 1.701-.074 2.869-.349 3.882-.743a8.234 8.234 0 0 0 4.665-4.629l.019-.055c.394-1.019.669-2.183.744-3.882.075-1.708.093-2.252.093-6.597s-.006-4.889-.08-6.597zm-2.881 13.069c-.07 1.564-.333 2.407-.551 2.97a5.339 5.339 0 0 1-3.005 3.025l-.036.012c-.56.219-1.412.482-2.969.551-1.688.075-2.194.094-6.465.094-4.27 0-4.783-.019-6.465-.094-1.564-.069-2.407-.331-2.97-.551a4.935 4.935 0 0 1-1.836-1.193l-.001-.001a4.987 4.987 0 0 1-1.184-1.803l-.011-.034c-.218-.563-.48-1.413-.549-2.97-.075-1.688-.094-2.196-.094-6.465 0-4.271.019-4.785.094-6.465.069-1.564.331-2.407.549-2.97A4.887 4.887 0 0 1 4.8 4.748l.002-.002a4.975 4.975 0 0 1 1.806-1.183l.034-.011c.56-.219 1.412-.48 2.969-.551 1.688-.074 2.196-.093 6.465-.093 4.276 0 4.783.019 6.465.093 1.564.069 2.407.331 2.97.551a4.922 4.922 0 0 1 1.837 1.194c.531.52.938 1.144 1.195 1.84.218.56.48 1.412.549 2.969.075 1.688.094 2.194.094 6.465 0 4.27-.019 4.769-.094 6.459z"/><path fill="#fff" style="fill:var(--color5, #fff)" d="M16.063 7.784a8.224 8.224 0 0 0-8.221 8.223v.002a8.224 8.224 0 1 0 8.224-8.224h-.002zm0 13.555a5.334 5.334 0 0 1 .001-10.668h.001a5.335 5.335 0 1 1 0 10.67zm10.468-13.88a1.92 1.92 0 1 1-3.84 0 1.92 1.92 0 1 1 3.84 0z"/></symbol><symbol id="linkedin-1-1" viewBox="0 0 32 32"><path fill="#afb1b8" style="fill:var(--color4, #afb1b8)" d="M31.999 32.007h.008v-11.74c0-5.742-1.237-10.165-7.949-10.165-3.228 0-5.393 1.77-6.278 3.45h-.093v-2.914h-6.366v21.368h6.629v-10.58c0-2.786.528-5.481 3.978-5.481 3.399 0 3.449 3.18 3.449 5.659v10.404h6.622zM.528 10.637h6.637v21.369H.528V10.637zM3.844 0A3.844 3.844 0 0 0 0 3.844c0 2.12 1.722 3.879 3.844 3.879 2.12 0 3.842-1.757 3.842-3.879S5.966.002 3.844 0z"/></symbol><symbol id="linkedin1-2" viewBox="0 0 32 32"><path fill="#fff" style="fill:var(--color5, #fff)" d="M31.999 32.007h.008v-11.74c0-5.742-1.237-10.165-7.949-10.165-3.228 0-5.393 1.77-6.278 3.45h-.093v-2.914h-6.366v21.368h6.629v-10.58c0-2.786.528-5.481 3.978-5.481 3.399 0 3.449 3.18 3.449 5.659v10.404h6.622zM.528 10.637h6.637v21.369H.528V10.637zM3.844 0A3.844 3.844 0 0 0 0 3.844c0 2.12 1.722 3.879 3.844 3.879 2.12 0 3.842-1.757 3.842-3.879S5.966.002 3.844 0z"/></symbol><symbol id="Logo1" viewBox="0 0 57 32"><path fill="#afb1b8" style="fill:var(--color4, #afb1b8)" d="m20.268 3.732 3.738 3.538-6.938-.004v17.168h18.135V17.87l3.734 3.535V3.732H20.269zm14.771 13.723L24.441 7.422h10.598v10.033zm-3.291 4.468H19.937V10.378h.835v10.764h10.976v.781zm-9.021 4.798-.436.899-.436-.899h-.366l.637 1.198v.698h.331v-.698l.635-1.198h-.364zm.549 1.896.154-.442h.734l.155.442h.344l-.717-1.896h-.296l-.716 1.896h.342zm.52-1.493.275.786h-.549l.275-.787zm1.737.74a.425.425 0 0 0-.071.238v.003c0 .16.056.29.168.389s.263.149.45.149a.784.784 0 0 0 .485-.153l.107.126h.367l-.278-.33a.95.95 0 0 0 .164-.574h-.275a.768.768 0 0 1-.079.348l-.366-.432.129-.094a.724.724 0 0 0 .195-.195l.002-.003a.412.412 0 0 0 .06-.216v-.01a.388.388 0 0 0-.132-.293.477.477 0 0 0-.32-.123h-.02.001c-.153 0-.274.044-.364.13s-.135.203-.135.352c0 .061.014.123.043.189.03.065.082.144.155.237a1.13 1.13 0 0 0-.282.261zm.856.42a.478.478 0 0 1-.299.107h-.015a.31.31 0 0 1-.212-.083.286.286 0 0 1-.085-.203v-.011.001c0-.101.052-.192.156-.271l.041-.029.414.489zm-.34-.84c-.09-.11-.134-.202-.134-.275 0-.063.019-.116.055-.157a.184.184 0 0 1 .139-.063h.015c.052 0 .1.02.135.054a.168.168 0 0 1 .056.126v.007a.234.234 0 0 1-.08.177l-.041.032-.145.099zm3.086 1.03a.689.689 0 0 0 .224-.474h-.328c-.018.135-.059.232-.124.29s-.163.087-.292.087c-.141 0-.249-.054-.323-.162s-.11-.264-.11-.469v-.167c.002-.203.041-.355.117-.46a.386.386 0 0 1 .331-.157c.123 0 .217.03.28.091s.104.158.12.294h.328c-.021-.207-.095-.368-.222-.482s-.296-.171-.506-.171a.717.717 0 0 0-.681.421l-.002.005c-.06.133-.096.288-.096.451v.023-.001.177c.003.174.035.328.098.46s.151.234.266.306a.75.75 0 0 0 .4.107c.216 0 .389-.056.52-.169zm1.936-.266c.064-.141.097-.304.097-.49v-.125c0-.169-.036-.329-.102-.473l.003.007a.728.728 0 0 0-.274-.318l-.003-.002c-.119-.075-.256-.112-.411-.112s-.291.037-.411.113a.738.738 0 0 0-.277.324 1.135 1.135 0 0 0-.098.466v.025-.001.107c.001.181.034.341.099.48a.752.752 0 0 0 .279.322.764.764 0 0 0 .411.112.755.755 0 0 0 .412-.112.737.737 0 0 0 .276-.323zm-.352-1.072c.08.112.119.274.119.484v.099c0 .213-.039.376-.118.487a.386.386 0 0 1-.336.167h-.014a.393.393 0 0 1-.324-.17l-.001-.001c-.081-.114-.121-.275-.121-.483v-.109c.002-.204.043-.362.122-.473a.39.39 0 0 1 .321-.168h.014-.001a.39.39 0 0 1 .338.168z"/></symbol><symbol id="Logo2" viewBox="0 0 57 32"><path fill="#afb1b8" style="fill:var(--color4, #afb1b8)" d="M26.73 3.164h-.073a7.542 7.542 0 0 0-.336-.012h-.243c-.212 0-.428.005-.642.016l-.024-.001-.025.001h.001c-2.059.12-3.971.635-5.7 1.47l.09-.039-.23.111v11.81l.54-.183a20.64 20.64 0 0 1 1.5-.445 17.815 17.815 0 0 1 4.305-.573h.012v1.552c-.193.001-.38.006-.568.016h-.045c-1.212.068-2.348.25-3.442.537l.12-.027c-1.503.382-2.82.911-4.045 1.587l.087-.044V3.794a15.49 15.49 0 0 1 4.042-1.665l.11-.024a15.546 15.546 0 0 1 3.91-.505h.231c.273.007.539.019.788.038.658.046 1.31.15 1.95.311v1.527a11.482 11.482 0 0 0-1.849-.283l-.039-.002-.039-.003c-.132-.011-.264-.022-.386-.022zm2.687 1.561c.339.026.69.038 1.044.038a16.84 16.84 0 0 0 4.231-.554l-.117.026a16.924 16.924 0 0 0 4.043-1.587l-.087.044v14.876a15.566 15.566 0 0 1-4.043 1.665l-.11.024c-1.173.314-2.52.498-3.91.503h-.1c-1.02 0-2.01-.128-2.955-.368l.083.018V4.437c.229.053.466.102.706.142.394.067.81.115 1.215.145zm7.571.116-.54.181c-.496.167-.997.316-1.5.449-1.344.36-2.888.569-4.48.575h-.004c-.352 0-.676-.01-.989-.03l-.43-.028v12.149l.37.032c.342.03.696.045 1.052.045a14.371 14.371 0 0 0 3.631-.48l-.1.023a14.671 14.671 0 0 0 2.848-1.031l-.088.039.23-.111V4.841zM19.061 24.114a.794.794 0 0 0-.572-.243l-.03.001h.001-.012a.897.897 0 0 0-.341.067l.006-.002a.785.785 0 0 0-.442.444l-.002.005a.874.874 0 0 0-.062.335v2.024a.957.957 0 0 0 .079.415.808.808 0 0 0 .203.271.714.714 0 0 0 .277.144c.099.027.201.042.302.042a.854.854 0 0 0 .838-.851v-.226h-.53v.192c0 .06-.011.118-.032.171l.001-.003a.315.315 0 0 1-.077.114.367.367 0 0 1-.221.077.268.268 0 0 1-.248-.108l-.001-.001a.478.478 0 0 1-.071-.251v-.021.001-1.887a.643.643 0 0 1 .065-.302.27.27 0 0 1 .227-.124l.033.002h-.001.01c.092 0 .174.045.226.114l.001.001a.425.425 0 0 1 .088.26v.012-.001.175h.524v-.215a.958.958 0 0 0-.067-.352l.002.006a.838.838 0 0 0-.177-.285zm3.143-.023a.92.92 0 0 0-.917-.166.838.838 0 0 0-.483.443l-.002.005a.94.94 0 0 0-.077.392v1.94a.932.932 0 0 0 .077.397.77.77 0 0 0 .205.271.837.837 0 0 0 .279.171.914.914 0 0 0 .919-.172l-.001.001a.831.831 0 0 0 .199-.271.934.934 0 0 0 .077-.397v-1.958a.952.952 0 0 0-.08-.381l.002.006a.876.876 0 0 0-.199-.283zm-.247 2.616.001.03a.349.349 0 0 1-.106.251.388.388 0 0 1-.499 0h.001a.344.344 0 0 1-.106-.25c0-.011 0-.022.002-.032v.001-1.941l-.001-.03c0-.098.041-.187.106-.25a.388.388 0 0 1 .499 0h-.001a.344.344 0 0 1 .106.25l-.001.032v-.001 1.942zm4.374.867v-3.675h-.508l-.668 1.945h-.009l-.674-1.945h-.503v3.674h.525v-2.235h.01l.514 1.58h.262l.518-1.58h.01v2.235h.525zm2.982-3.417a.727.727 0 0 0-.297-.201 1.153 1.153 0 0 0-.361-.057h-.8v3.675h.524v-1.435h.269a.968.968 0 0 0 .473-.1.779.779 0 0 0 .286-.278l.002-.003a.893.893 0 0 0 .12-.32 2.56 2.56 0 0 0 .028-.385v-.035.002a2.107 2.107 0 0 0-.051-.525.789.789 0 0 0-.193-.338zm-.27 1.121a.45.45 0 0 1-.05.194l.001-.003a.3.3 0 0 1-.133.128l-.002.001a.525.525 0 0 1-.22.047l-.028-.001h.001-.239v-1.249h.27l.025-.001c.077 0 .149.017.214.048l-.003-.001a.299.299 0 0 1 .122.134l.001.002a.537.537 0 0 1 .046.205v.244c0 .085.005.174 0 .252h-.005zm2.751-1.379h-.429l-.81 3.675h.524l.154-.789h.714l.154.789h.523l-.829-3.675zm-.484 2.385.258-1.332h.01l.256 1.332h-.523zm3.866-.171h-.01l-.79-2.213h-.504v3.675h.523v-2.21h.011l.8 2.209h.493V23.9h-.523v2.213zm3.199-2.214-.421 1.461h-.011l-.421-1.461h-.554l.719 2.122v1.553h.524v-1.553l.719-2.121h-.555zm-20.774 4.713h.252v.708h.171v-.708h.251v-.145h-.674v.146zm2.122-.146-.331.853h.182l.07-.194h.34l.073.194h.187l-.339-.853h-.182zm-.027.516.116-.316.116.316h-.232zm2.123.023h.197v.11a.326.326 0 0 1-.203.072h-.012a.218.218 0 0 1-.169-.081.352.352 0 0 1-.063-.203l.001-.02v.001c0-.19.082-.285.245-.285l.018-.001a.18.18 0 0 1 .174.136v.001l.169-.033c-.036-.166-.156-.251-.362-.251h-.011a.43.43 0 0 0-.287.11.415.415 0 0 0-.123.329v-.001.02c0 .115.041.22.11.301l-.001-.001a.412.412 0 0 0 .298.126l.027-.001h-.001.014a.51.51 0 0 0 .348-.137v-.336h-.37v.144zm2.142-.539h-.173v.853h.597v-.145h-.425v-.708zm1.811 0h-.173v.853h.173v-.853zm1.769.57-.349-.57h-.167v.853h.16v-.557l.343.557h.172v-.853h-.158v.57zm1.601-.093h.425v-.145h-.425v-.187h.457v-.146h-.63v.853h.648v-.145h-.475v-.231zm3.88-.14h-.336v-.336h-.171v.853h.171v-.373h.336v.373h.172v-.853h-.172v.337zm1.61.14h.427v-.145h-.427v-.187h.459v-.146h-.629v.853h.646v-.145h-.475v-.231zm2.183.001c.149-.023.224-.102.224-.237l.001-.024a.205.205 0 0 0-.085-.166h-.001a.48.48 0 0 0-.216-.051l-.035.001h.002-.362v.853h.172v-.357h.048c.034 0 .066.007.094.02l-.001-.001a.181.181 0 0 1 .061.062l.186.271h.205l-.104-.166a.598.598 0 0 0-.187-.203l-.002-.001zm-.173-.118h-.126v-.214h.135l.036-.001c.049 0 .097.008.141.023l-.003-.001c.023.021.037.05.037.083a.114.114 0 0 1-.045.09.464.464 0 0 1-.142.021l-.033-.001h.002zm1.82.117h.425v-.145h-.425v-.187h.459v-.146h-.632v.853h.648v-.145h-.475v-.231z"/></symbol><symbol id="Logo3" viewBox="0 0 57 32"><path fill="#afb1b8" style="fill:var(--color4, #afb1b8)" d="M19.418 26.188a.07.07 0 0 1 .046.018l.116.111a.959.959 0 0 1-.328.211 1.254 1.254 0 0 1-.434.076h-.032.002a1.213 1.213 0 0 1-.436-.071.958.958 0 0 1-.33-.2l.001.001a.908.908 0 0 1-.21-.302l-.002-.006a1.016 1.016 0 0 1-.075-.385v-.012.001-.02c0-.272.118-.516.305-.684l.001-.001a1.06 1.06 0 0 1 .349-.201c.143-.048.296-.072.45-.07h.028c.139 0 .273.024.398.067l-.009-.003c.115.044.221.104.313.179l-.098.118a.12.12 0 0 1-.024.021.064.064 0 0 1-.034.009h-.006a.102.102 0 0 1-.043-.012l-.052-.032-.073-.041a.823.823 0 0 0-.225-.07l-.005-.001a1 1 0 0 0-.161-.013h-.013.001-.011a.963.963 0 0 0-.319.055l.007-.002a.734.734 0 0 0-.254.15l.001-.001a.67.67 0 0 0-.164.237.774.774 0 0 0-.059.302v.011-.001.013c0 .11.022.215.061.311l-.002-.005a.707.707 0 0 0 .162.236.662.662 0 0 0 .242.147.886.886 0 0 0 .299.051c.059.001.119-.003.178-.01a.696.696 0 0 0 .385-.164l-.001.001a.088.088 0 0 1 .055-.02zm3.359-.558v.012a.958.958 0 0 1-.081.387l.002-.006a.864.864 0 0 1-.218.304l-.001.001a1.01 1.01 0 0 1-.337.198l-.007.002a1.409 1.409 0 0 1-.894-.003l.01.003a1.016 1.016 0 0 1-.342-.202l.001.001a.893.893 0 0 1-.219-.303l-.002-.006a1.024 1.024 0 0 1 .003-.793l-.003.007a.925.925 0 0 1 .221-.309c.097-.085.213-.15.341-.194a1.383 1.383 0 0 1 .894.003l-.01-.003c.129.045.246.114.343.201a.903.903 0 0 1 .298.701zm-.305 0v-.017a.812.812 0 0 0-.058-.305l.002.006a.655.655 0 0 0-.397-.384l-.005-.001a1.027 1.027 0 0 0-.65.002l.007-.002a.682.682 0 0 0-.246.15.626.626 0 0 0-.156.232l-.001.004a.91.91 0 0 0 .003.638l-.002-.006a.652.652 0 0 0 .399.383l.005.001c.207.068.435.068.643 0a.685.685 0 0 0 .245-.148.662.662 0 0 0 .156-.236.817.817 0 0 0 .055-.316zm2.597.331.031.07c.011-.025.021-.048.033-.07a.937.937 0 0 1 .039-.072l-.002.003.743-1.174c.015-.02.028-.033.043-.037s.033-.007.051-.007h.23v1.91h-.26v-1.463l-.001-.033.001-.035v.002l-.748 1.191a.111.111 0 0 1-.043.043h-.001a.13.13 0 0 1-.063.016H25.077a.134.134 0 0 1-.063-.016h.001a.111.111 0 0 1-.043-.043v-.001l-.77-1.198v1.532h-.251v-1.905h.229c.018 0 .036.002.052.007h-.001a.087.087 0 0 1 .041.037l.759 1.175c.014.02.026.042.037.066l.001.003zm2.797-.095v.715h-.29v-1.906h.649c.123-.002.244.012.362.042a.724.724 0 0 1 .256.119.499.499 0 0 1 .144.184l.001.003a.577.577 0 0 1 .05.244v.012a.53.53 0 0 1-.209.422l-.001.001a.757.757 0 0 1-.258.126 1.208 1.208 0 0 1-.327.044h-.024l-.351-.005zm0-.205h.352a.82.82 0 0 0 .226-.029.488.488 0 0 0 .164-.083l-.001.001a.365.365 0 0 0 .133-.282v-.005l.001-.021a.33.33 0 0 0-.03-.137l.001.002a.371.371 0 0 0-.101-.13l-.001-.001a.621.621 0 0 0-.345-.104l-.048.002h.002-.352v.786zm3.909.922h-.233a.111.111 0 0 1-.06-.018.116.116 0 0 1-.038-.044v-.001l-.197-.461h-.994l-.205.461a.11.11 0 0 1-.099.062h-.233l.873-1.91h.302l.884 1.91zm-1.44-.709h.82l-.346-.777a1.33 1.33 0 0 1-.066-.179l-.034.1a.652.652 0 0 1-.032.081l-.343.776zm2.697-1.191a.12.12 0 0 1 .043.034l1.273 1.44v-1.482h.26v1.91h-.148a.135.135 0 0 1-.057-.012h.001a.165.165 0 0 1-.047-.035l-1.27-1.438.001.033-.001.034v-.002 1.419h-.26v-1.91h.154a.15.15 0 0 1 .052.009zm3.719 1.141v.758h-.291v-.757l-.804-1.15h.266c.021 0 .04.006.056.016a.175.175 0 0 1 .039.043l.503.742a1.118 1.118 0 0 1 .089.17l.037-.082a.63.63 0 0 1 .05-.087l.496-.747a.202.202 0 0 1 .037-.04.095.095 0 0 1 .057-.019h.269l-.805 1.155zM24.925 21.47c.126.014.254.025.384.035 1.962-.763 3.622-2.011 4.773-3.589s1.739-3.415 1.695-5.283l-2.162-1.879c.439 1.988.234 4.043-.594 5.935s-2.246 3.547-4.095 4.779z"/><path fill="#afb1b8" style="fill:var(--color4, #afb1b8)" d="m24.153 21.383.058.011c1.976-1.228 3.481-2.943 4.324-4.922s.981-4.133.4-6.182l-3.08-2.676c1.245 2.2 1.747 4.662 1.445 7.099-.301 2.438-1.392 4.75-3.147 6.67zm10.446-6.543c-.523 2.052-1.794 3.902-3.624 5.277-.5.38-1.064.737-1.658 1.043l-.065.03c1.49-.38 2.859-1.053 4.003-1.966s2.031-2.042 2.592-3.3l-1.249-1.084z"/><path fill="#afb1b8" style="fill:var(--color4, #afb1b8)" d="m34.109 14.539-1.778-1.545c-.034 1.762-.611 3.483-1.669 4.986s-2.562 2.732-4.352 3.559h.009c.399 0 .797-.021 1.194-.062 1.673-.594 3.152-1.538 4.303-2.748s1.94-2.65 2.295-4.19zm-9.698-8.054-2.122-1.846c-1.897.637-3.528 1.756-4.68 3.212s-1.772 3.179-1.778 4.947c.007 1.952.763 3.847 2.15 5.383 1.385 1.536 3.321 2.628 5.501 3.101 1.946-2.06 3.086-4.605 3.253-7.266s-.647-5.299-2.323-7.531zm14.6 7.769c-.007-2.316-1.07-4.535-2.955-6.173s-4.44-2.561-7.106-2.568h-.021a11.28 11.28 0 0 0-3.66.606l.079-.024 12.99 11.287a7.54 7.54 0 0 0 .672-3.128z"/></symbol><symbol id="Logo4" viewBox="0 0 57 32"><path fill="#2196f3" style="fill:var(--color3, #2196f3)" d="M12.879 11.255h-.002c-1.279 0-2.316.921-2.316 2.058v.002c0 1.137 1.037 2.058 2.316 2.058h.002c1.279 0 2.316-.922 2.316-2.058v-.001c0-1.137-1.037-2.059-2.316-2.059zm17.094-.658c-.004-1.579-.711-3.093-1.967-4.209s-2.959-1.745-4.735-1.749c-1.777.003-3.481.632-4.737 1.748s-1.964 2.63-1.968 4.209v8.706s13.406-1.327 13.407-8.705v-.002zM5.867 22.16c.003 1.099.496 2.151 1.37 2.928s2.058 1.215 3.294 1.218c1.236-.003 2.42-.441 3.294-1.218s1.367-1.829 1.37-2.927v-6.058s-9.328.924-9.328 6.057zm4.664 1.085c-.242 0-.477-.063-.678-.183a1.136 1.136 0 0 1-.447-.48l-.003-.007a.951.951 0 0 1-.068-.634l-.001.007c.047-.211.163-.404.334-.556s.388-.256.625-.297a1.363 1.363 0 0 1 .715.064l-.009-.003c.223.082.414.221.548.4s.206.388.206.603a.963.963 0 0 1-.092.417 1.095 1.095 0 0 1-.263.352l-.001.001a1.323 1.323 0 0 1-.864.319h-.001v-.004zm9.427-.597h-.9v.93h-.469v-2.276h1.482v.38h-1.013v.588h.9v.378zm2.253-.156c0 .224-.039.42-.118.589a.893.893 0 0 1-.83.529h-.018.001a.943.943 0 0 1-.505-.136.917.917 0 0 1-.341-.382l-.002-.006a1.319 1.319 0 0 1-.123-.561v-.021.001-.112c0-.224.04-.421.12-.591a.895.895 0 0 1 .342-.392c.148-.092.316-.138.506-.138s.357.046.505.138a.888.888 0 0 1 .342.392c.081.17.122.366.122.589v.101zm-.475-.104c0-.238-.043-.42-.128-.544a.417.417 0 0 0-.348-.186h-.019.001-.018a.419.419 0 0 0-.346.183l-.001.001c-.085.122-.129.301-.13.538v.111c0 .232.043.412.128.54s.208.192.369.192h.019a.413.413 0 0 0 .343-.183l.001-.001c.084-.124.127-.304.128-.541v-.111zm1.995.592v-.013a.24.24 0 0 0-.093-.189h-.001a1.185 1.185 0 0 0-.338-.15c-.15-.047-.278-.1-.399-.163l.014.006c-.259-.14-.388-.328-.388-.564 0-.123.034-.233.103-.328a.691.691 0 0 1 .299-.227 1.13 1.13 0 0 1 .437-.081c.163 0 .307.029.435.089a.677.677 0 0 1 .295.249.646.646 0 0 1 .107.365h-.469c0-.104-.032-.185-.098-.242a.4.4 0 0 0-.276-.087.426.426 0 0 0-.267.074.228.228 0 0 0-.096.185v.006c0 .074.037.136.111.186.075.05.185.097.33.14.267.08.461.18.583.299s.183.267.183.444c0 .197-.075.352-.224.464s-.349.167-.601.167c-.175 0-.334-.032-.478-.096a.77.77 0 0 1-.328-.261l-.002-.002a.672.672 0 0 1-.112-.373v-.015.001h.47c0 .251.15.377.45.377a.442.442 0 0 0 .261-.067.224.224 0 0 0 .094-.182v-.009zm2.502-1.298h-.697v1.896h-.469v-1.896h-.686v-.38h1.853v.38zm1.638.909h-.9v.61h1.056v.377h-1.525v-2.276h1.522v.38h-1.053v.542h.9v.367zm1.273.154h-.373v.833h-.469v-2.276h.845c.269 0 .476.06.622.18s.219.289.219.508a.705.705 0 0 1-.101.389.69.69 0 0 1-.3.245l-.005.002.492.93v.021h-.503l-.427-.832zm-.373-.38h.379a.387.387 0 0 0 .273-.089.323.323 0 0 0 .097-.231v-.018.001c0-.108-.03-.192-.092-.253s-.154-.092-.28-.092h-.377v.683zm2.841.411v.802h-.469v-2.276h.888c.171 0 .321.031.45.094.13.062.23.151.3.267a.746.746 0 0 1 .105.392.657.657 0 0 1-.229.528c-.153.128-.363.193-.633.193h-.411zm0-.38h.419c.124 0 .219-.029.283-.087a.317.317 0 0 0 .099-.25v-.017a.372.372 0 0 0-.099-.254.37.37 0 0 0-.272-.106h-.43v.715zm2.965.195h-.9v.61h1.056v.377h-1.525v-2.276h1.522v.38h-1.053v.542h.9v.367zm2.176-.909h-.697v1.896h-.469v-1.896h-.688v-.38h1.853v.38zm1.637.909h-.899v.61h1.056v.377h-1.525v-2.276h1.522v.38h-1.053v.542h.9v.367zm1.274.154h-.373v.833h-.469v-2.276h.846c.269 0 .476.06.622.18s.219.289.219.508a.705.705 0 0 1-.101.389.687.687 0 0 1-.301.245l-.005.002.492.93v.021h-.503l-.427-.832zm-.373-.38h.378c.117 0 .209-.029.273-.089a.325.325 0 0 0 .098-.232v-.018.001a.338.338 0 0 0-.092-.253c-.06-.061-.154-.092-.279-.092h-.377v.683zm2.755.616v-.013a.237.237 0 0 0-.094-.189h-.001a1.185 1.185 0 0 0-.338-.15c-.15-.047-.278-.1-.399-.163l.014.006c-.259-.14-.388-.328-.388-.564 0-.123.035-.233.103-.328a.691.691 0 0 1 .299-.227 1.13 1.13 0 0 1 .437-.081c.163 0 .307.029.435.089a.677.677 0 0 1 .295.249.646.646 0 0 1 .107.365h-.469c0-.104-.032-.185-.098-.242a.4.4 0 0 0-.276-.087.426.426 0 0 0-.267.074.229.229 0 0 0-.096.186v.005c0 .074.037.136.111.186s.185.097.33.14c.267.08.461.18.583.299s.183.267.183.444c0 .197-.075.352-.224.464s-.349.167-.601.167c-.175 0-.334-.032-.478-.096a.77.77 0 0 1-.328-.261l-.002-.002a.672.672 0 0 1-.112-.373v-.015.001h.47c0 .251.15.377.45.377a.442.442 0 0 0 .261-.067.224.224 0 0 0 .094-.182v-.009z"/></symbol><symbol id="Logo5" viewBox="0 0 57 32"><path fill="#afb1b8" style="fill:var(--color4, #afb1b8)" d="M14.272 23.859a.768.768 0 0 1 .197.56.756.756 0 0 1-.073.326l.002-.005a.83.83 0 0 1-.232.296l-.002.001a1.39 1.39 0 0 1-.885.24h.004-1.549v-3.302h1.517a1.377 1.377 0 0 1 .846.222l-.005-.003a.782.782 0 0 1 .227.277.71.71 0 0 1 .068.341.722.722 0 0 1-.176.505.842.842 0 0 1-.462.258.893.893 0 0 1 .523.283zm-1.817-.498h.649a.655.655 0 0 0 .412-.11.386.386 0 0 0 .109-.144l.001-.003a.358.358 0 0 0 .03-.145l-.001-.033v.001l.001-.028a.376.376 0 0 0-.031-.15l.001.002a.399.399 0 0 0-.108-.147h-.001a.665.665 0 0 0-.373-.113l-.054.002h.002-.638v.867zm1.124 1.266a.407.407 0 0 0 .118-.149l.001-.003a.37.37 0 0 0 .034-.158l-.001-.027v.001l.001-.024a.38.38 0 0 0-.037-.165l.001.002a.41.41 0 0 0-.121-.151l-.001-.001a.705.705 0 0 0-.397-.121l-.045.001h.002-.68v.908h.689a.727.727 0 0 0 .435-.115zm3.793.652-.843-1.291h-.317v1.291h-.726v-3.302h1.375a1.433 1.433 0 0 1 .96.284l-.004-.003a1.018 1.018 0 0 1 .329.735.99.99 0 0 1-.228.633l.001-.002a1.152 1.152 0 0 1-.649.335l-.006.001.899 1.32h-.789zm-1.161-1.741h.594c.412 0 .619-.166.619-.5l.001-.027a.464.464 0 0 0-.035-.176l.001.003a.494.494 0 0 0-.118-.171.68.68 0 0 0-.47-.133h.003-.601l.007 1.005zm5.129 1.076h-1.447l-.256.665h-.761l1.328-3.265h.824l1.323 3.265h-.761l-.25-.665zm-.193-.5-.529-1.394-.529 1.394h1.057zm5.16 1.165h-.72l-1.616-2.246v2.246h-.719v-3.303h.719l1.616 2.259v-2.259h.72v3.303zm4.113-.79a1.501 1.501 0 0 1-.652.582c-.28.132-.608.209-.955.209l-.062-.001h.003-1.282v-3.302h1.283l.06-.001c.345 0 .673.075.968.209l-.015-.006c.276.128.503.329.652.576a1.78 1.78 0 0 1 0 1.733zm-.824-.079c.196-.205.317-.482.318-.788 0-.289-.113-.569-.318-.788a1.317 1.317 0 0 0-.906-.281h.004-.5v2.138h.5a1.328 1.328 0 0 0 .906-.282l-.003.002zM21.792 3.608s9.301 3.215 9.104 7.868v7.869s-9.295-3.216-9.101-7.869l-.003-7.868zm17.39 13.895a13.498 13.498 0 0 1 5.91-1.994v-2.464c-2.444.863-4.518 2.427-5.91 4.458z"/><path fill="#afb1b8" style="fill:var(--color4, #afb1b8)" d="M38.127 18.246c1.437-2.651 3.93-4.696 6.965-5.716V5.432s-13.246 4.58-12.966 11.206v11.204s.59-.205 1.519-.589c0-.358 0-.72.043-1.083.274-3.075 1.871-5.926 4.44-7.924z"/><path fill="#afb1b8" style="fill:var(--color4, #afb1b8)" d="M36.867 22.407c.069-.777.225-1.546.463-2.294-1.599 1.725-2.568 3.867-2.769 6.123-.02.213-.03.426-.036.645a36.805 36.805 0 0 0 2.761-1.334l-.214.105a10.63 10.63 0 0 1-.206-3.245zm.527.041a10.184 10.184 0 0 0 .175 3.004l-.012-.066c3.619-1.983 7.686-5.047 7.529-8.749v-.323c-2.586.265-5.005 1.3-6.886 2.946a10.02 10.02 0 0 0-.804 3.148l-.003.04z"/></symbol><symbol id="Logo6" viewBox="0 0 57 32"><path fill="#afb1b8" style="fill:var(--color4, #afb1b8)" d="M28.496 14.617a1.563 1.563 0 0 1-.322-1.065v.005-1.538c0-.471.107-.829.321-1.075.213-.245.581-.367 1.101-.366.489 0 .837.105 1.042.313.224.266.333.591.308.92v.362h-.875v-.366a1.799 1.799 0 0 0-.026-.358.34.34 0 0 0-.125-.212l-.001-.001a.499.499 0 0 0-.279-.084l-.039.001h.002l-.038-.001a.53.53 0 0 0-.297.09l.002-.001a.415.415 0 0 0-.145.232v.003a1.74 1.74 0 0 0-.035.351v.031-.002 1.866c-.014.18.025.36.112.524.045.056.104.1.172.126l.003.001a.48.48 0 0 0 .228.029h-.002a.47.47 0 0 0 .311-.086l-.002.001a.37.37 0 0 0 .13-.224v-.002c.02-.124.03-.249.027-.374v-.379h.875v.346a1.397 1.397 0 0 1-.305.969l.002-.003c-.201.228-.544.342-1.048.342s-.884-.122-1.1-.376zm3.644.016c-.221-.24-.332-.588-.332-1.05v-1.618c0-.457.11-.803.332-1.037s.59-.351 1.109-.35c.515 0 .882.117 1.104.35.221.235.333.58.333 1.037v1.617c0 .457-.112.808-.337 1.049s-.59.361-1.1.361-.886-.122-1.109-.36zm1.516-.388a.902.902 0 0 0 .105-.478v-1.981a.872.872 0 0 0-.105-.474l.002.005a.425.425 0 0 0-.176-.128l-.003-.001a.473.473 0 0 0-.233-.027h.002a.49.49 0 0 0-.235.028l.003-.001a.416.416 0 0 0-.179.128l-.001.001a.855.855 0 0 0-.105.469v1.99a.888.888 0 0 0 .105.479.605.605 0 0 0 .639.116l-.004.001a.563.563 0 0 0 .185-.118v-.01zm2.082-3.619h.942l.708 2.984.725-2.984h.916l.093 4.308h-.678l-.073-2.994-.699 2.994h-.544l-.724-3.005-.067 3.005h-.685l.085-4.308zm4.441 0h1.468c.845 0 1.268.408 1.268 1.223 0 .781-.445 1.171-1.336 1.17h-.5v1.914h-.906l.005-4.308zm1.254 1.84a.707.707 0 0 0 .498-.136.699.699 0 0 0 .131-.486 1.325 1.325 0 0 0-.046-.4l.002.009a.317.317 0 0 0-.067-.119.386.386 0 0 0-.112-.085l-.002-.001a.913.913 0 0 0-.357-.071l-.05.001h.002-.352v1.288h.352zm2.789-1.84h.973l.998 4.308h-.845l-.197-.993h-.868l-.203.993h-.857l.998-4.308zm.832 2.815-.339-1.808-.339 1.808h.677zM47 10.626h.635l1.213 2.457v-2.457h.752v4.308h-.603l-1.221-2.566v2.566h-.777l.002-4.308zm4.361 2.664-1.009-2.659h.85l.616 1.708.578-1.708h.832l-.997 2.659v1.642h-.869v-1.643zm-21.466 3.527v.225h-.739v1.751h-.31v-1.751h-.743v-.225h1.792zm2.317 1.976h-.246a.105.105 0 0 1-.061-.019.1.1 0 0 1-.039-.045v-.001l-.214-.469h-1.026l-.213.469a.126.126 0 0 1-.033.053.108.108 0 0 1-.062.019h-.245l.906-1.976h.315l.917 1.968zm-1.5-.734h.855l-.363-.804a1.278 1.278 0 0 1-.064-.176l-.003-.01-.034.105-.033.083-.358.803zm3.062.54a1.018 1.018 0 0 0 .316-.023 1.018 1.018 0 0 0 .252-.085v-.444h-.365a.076.076 0 0 1-.046-.016c-.006-.004-.01-.01-.014-.016a.034.034 0 0 1-.004-.018v-.153h.703v.757c-.11.068-.237.123-.372.158l-.01.002c-.075.019-.15.033-.227.041a2.598 2.598 0 0 1-.265.012h-.012c-.159 0-.312-.027-.455-.077l.01.003a1.123 1.123 0 0 1-.364-.208l.002.001a.952.952 0 0 1-.231-.307l-.002-.006a.965.965 0 0 1-.083-.397v-.013.001-.012c0-.145.03-.283.084-.407l-.003.007a.907.907 0 0 1 .234-.313c.103-.089.227-.158.363-.205.155-.051.32-.076.485-.074.084 0 .169.005.252.017.074.011.146.027.215.05.064.02.124.047.181.078.055.031.108.065.158.103l-.087.122a.073.073 0 0 1-.029.026.093.093 0 0 1-.042.011.111.111 0 0 1-.057-.016h.001a.892.892 0 0 1-.094-.05l.005.003a.814.814 0 0 0-.115-.052l-.006-.002a1.027 1.027 0 0 0-.16-.043l-.007-.001a1.34 1.34 0 0 0-.218-.017h-.013.001-.011c-.121 0-.238.02-.346.057l.008-.002a.774.774 0 0 0-.267.156.672.672 0 0 0-.166.241l-.002.005a.917.917 0 0 0 .002.665l-.002-.006a.76.76 0 0 0 .445.405c.115.034.237.047.359.039zm2.888-.031h.989v.225H36.36v-1.976h.309l-.007 1.751zm2.019.225h-.309v-1.976h.309v1.976zm1.152-1.966a.14.14 0 0 1 .047.036l1.324 1.489-.001-.035.001-.037v.002-1.472h.27v1.984h-.166a.14.14 0 0 1-.058-.012h.001a.162.162 0 0 1-.048-.037l-1.323-1.488v1.536h-.259v-1.976h.161c.018 0 .035.003.051.009zm3.923-.01v.217h-1.098v.652h.89v.21h-.89v.674h1.098v.218h-1.417v-1.971h1.417zM11.287 4.616l13.758 3.373v11.819l-13.758-3.371V4.616zm-.882-1.008V17.01l15.521 3.806V7.415L10.405 3.608z"/><path fill="#afb1b8" style="fill:var(--color4, #afb1b8)" d="M18.724 27.037 3.201 23.228v-13.4l15.523 3.808v13.402zM10.662 4.464l13.579 3.33-5.775 4.987-13.58-3.332 5.776-4.986zm-.257-.856L3.201 9.827l15.523 3.808 7.203-6.22-15.521-3.807zm9.192 22.675 6.33-5.467-6.33-1.552v7.019z"/></symbol><symbol id="smartphone" viewBox="0 0 20 32"><path fill="#757575" style="fill:var(--color1, #757575)" d="M17.012 0H3.004A3.006 3.006 0 0 0 .002 3.002v26.014a3.006 3.006 0 0 0 3.002 3.002h14.008a3.006 3.006 0 0 0 3.002-3.002V3.002A3.006 3.006 0 0 0 17.012 0zM3.005 2.001h14.008a1 1 0 0 1 1.001 1.001v21.011H2.005V3.002a1 1 0 0 1 1.001-1.001zm14.007 28.015H3.004a1 1 0 0 1-1.001-1.001v-3.002h16.009v3.002a1 1 0 0 1-1.001 1.001z"/><path fill="#757575" style="fill:var(--color1, #757575)" d="M4.714 27.493a.89.89 0 0 1 .001 1.32l-.001.001a1.048 1.048 0 0 1-1.417 0l.001.001a.89.89 0 0 1-.001-1.32l.001-.001a1.048 1.048 0 0 1 1.417 0l-.001-.001z"/></symbol><symbol id="twitter-1-1" viewBox="0 0 32 32"><path fill="#afb1b8" style="fill:var(--color4, #afb1b8)" d="M32.007 6.08c-1.1.493-2.377.857-3.714 1.028l-.068.007a6.561 6.561 0 0 0 2.874-3.58l.013-.046a12.872 12.872 0 0 1-4.077 1.573l-.084.014A6.56 6.56 0 0 0 15.603 9.56v.004c0 .52.043 1.021.152 1.496-5.456-.266-10.282-2.881-13.525-6.862a6.535 6.535 0 0 0-.903 3.313v.001a6.57 6.57 0 0 0 2.914 5.452 6.457 6.457 0 0 1-2.995-.823l.033.017v.072a6.594 6.594 0 0 0 5.214 6.442l.043.008a6.41 6.41 0 0 1-1.663.215h-.061.003c-.419 0-.843-.024-1.242-.112.85 2.599 3.261 4.51 6.131 4.571a13.1 13.1 0 0 1-8.124 2.801h-.013.001-.062c-.532 0-1.055-.034-1.569-.099l.061.006c2.827 1.846 6.288 2.945 10.006 2.945h.063-.003c12.075 0 18.676-10.002 18.676-18.673 0-.288-.01-.57-.024-.848a13.207 13.207 0 0 0 3.259-3.355l.03-.047z"/></symbol></defs></svg>